<svg width="500" height="500" viewBox="0 0 500 500" fill="none" xmlns="http://www.w3.org/2000/svg">
<path d="M261.563 187.057C268.318 181.75 269.318 171.286 265.089 164.156C261.115 157.552 252.578 154.578 245.229 156.583C234.761 159.146 229.12 172.286 234.354 181.714C238.844 191.698 253.62 194.63 261.563 187.057Z" fill="#EA580B"/>
<path d="M190.964 217.719C200.724 218.13 209.37 208.698 208.182 199.01C208.26 188.62 197.344 180.38 187.323 182.604C179.974 183.943 173.74 190.25 173.031 197.714C171.177 208.068 180.495 218.427 190.964 217.719Z" fill="#EA580B"/>
<path d="M309.817 217.573C319.651 218.24 328.338 208.849 326.927 199.125C327.484 188.505 316.088 180.344 306.104 182.641C299.422 184.052 293.927 189.396 292.333 196.042C289.51 206.547 298.604 218.609 309.817 217.573Z" fill="#EA580B"/>
<path d="M263.568 208.698C257.219 204.432 249.125 204.693 241.927 206.177C229.938 210.146 222.214 222.729 223.698 235.24C223.813 262.26 223.698 289.323 223.776 316.344C223.886 332.047 240.849 345.411 256.104 340.474C268.167 339.026 276.781 326.74 276.667 314.974C276.781 287.432 276.708 259.885 276.708 232.307C276.818 222.844 271.807 213.49 263.568 208.698ZM239.886 314.974C239.886 287.469 239.886 259.963 239.886 232.458C239.589 227.927 242.443 223.365 246.75 221.838C252.094 219.797 258.63 223.286 259.927 228.818C261.115 257.958 260.896 287.172 260.115 316.344C259.964 320.208 256.995 323.474 253.432 324.698C247.198 327.703 239.662 321.469 239.886 314.974Z" fill="#EA580B"/>
<mask id="mask0_32_2" style="mask-type:luminance" maskUnits="userSpaceOnUse" x="282" y="228" width="55" height="91">
<path d="M282.667 228H336.677V318.667H282.667V228Z" fill="white"/>
</mask>
<g mask="url(#mask0_32_2)">
<path d="M336.281 255.547C336.135 244.557 328.896 233.943 318.281 230.562C313.568 229.526 308.63 228.375 303.875 229.781C292.073 232.234 282.943 243.557 283.203 255.656C283.349 268.646 282.87 281.641 283.427 294.63C284.984 311.63 305.661 323.141 320.766 314.786C330.453 311.187 336.318 300.385 336.318 290.323C336.245 278.708 336.318 267.125 336.281 255.547ZM299.276 288.953C299.385 277.818 299.125 266.641 299.385 255.505C299.24 248.568 307.849 242.479 314.01 246.526C318.167 248.193 319.948 252.797 319.615 257.031C319.391 268.536 320.583 280.12 319.505 291.588C318.984 297.193 314.12 301.682 308.479 301.24C307.182 301.125 305.844 300.792 304.62 300.125C304.547 300.088 304.51 300.052 304.432 300.016C303.875 299.677 303.323 299.307 302.839 298.865C300.24 296.302 299.089 292.552 299.276 288.953Z" fill="#EA580B"/>
</g>
<mask id="mask1_32_2" style="mask-type:luminance" maskUnits="userSpaceOnUse" x="163" y="228" width="55" height="91">
<path d="M163.677 228H217.333V318.667H163.677V228Z" fill="white"/>
</mask>
<g mask="url(#mask1_32_2)">
<path d="M217.094 255.547C216.943 244.557 209.708 233.943 199.088 230.562C194.375 229.526 189.437 228.375 184.687 229.781C172.885 232.198 163.755 243.557 164.01 255.62C164.161 268.609 163.677 281.604 164.234 294.594C165.797 311.594 186.469 323.099 201.578 314.75C211.265 311.151 217.13 300.349 217.13 290.286C217.057 278.708 217.167 267.125 217.094 255.547ZM180.12 288.953C180.234 277.818 179.974 266.641 180.234 255.505C180.083 248.568 188.698 242.479 194.859 246.526C199.015 248.193 200.797 252.797 200.463 257.031C200.239 268.536 201.427 280.12 200.354 291.588C199.833 297.193 194.969 301.682 189.328 301.24C188.031 301.125 186.693 300.792 185.469 300.125C185.39 300.088 185.354 300.052 185.281 300.016C184.724 299.677 184.167 299.307 183.687 298.865C181.052 296.302 179.937 292.552 180.12 288.953Z" fill="#EA580B"/>
</g>
<mask id="mask2_32_2" style="mask-type:luminance" maskUnits="userSpaceOnUse" x="80" y="77" width="340" height="189">
<path d="M80.1719 77H420V265.333H80.1719V77Z" fill="white"/>
</mask>
<g mask="url(#mask2_32_2)">
<path d="M116.745 216.75C112.146 201.422 108.609 185.432 106.219 169.167C117.458 167.5 130.448 163.932 144.906 158.531C160.646 152.651 178.38 144.542 197.625 134.422C220.557 122.365 240.427 110.141 249.943 104.12C249.958 104.13 249.974 104.141 249.995 104.151C250.01 104.141 250.026 104.13 250.042 104.12C259.557 110.141 279.427 122.365 302.359 134.422C321.604 144.542 339.339 152.651 355.078 158.531C369.536 163.932 382.526 167.5 393.766 169.167C391.38 185.432 387.844 201.422 383.24 216.75C378.281 233.271 371.953 249.448 364.438 264.87C407.578 218.115 419.813 148.135 419.813 148.135L406.974 147.984C386.615 147.745 354.375 136.328 313.734 114.969C282.271 98.4323 256.953 81.7136 256.703 81.5417L250.042 77.1302L249.995 77.1667L249.943 77.1302L243.286 81.5417C243.031 81.7136 217.714 98.4323 186.25 114.969C145.615 136.328 113.37 147.745 93.0104 147.984L80.1719 148.135C80.1719 148.135 92.4063 218.115 135.552 264.87C128.031 249.448 121.708 233.271 116.745 216.75Z" fill="black"/>
</g>
<mask id="mask3_32_2" style="mask-type:luminance" maskUnits="userSpaceOnUse" x="101" y="234" width="298" height="189">
<path d="M101.333 234.667H398.667V423H101.333V234.667Z" fill="white"/>
</mask>
<g mask="url(#mask3_32_2)">
<path d="M250.042 395.339C250.026 395.328 250.01 395.318 249.995 395.307C249.974 395.318 249.958 395.328 249.943 395.339C176.349 348.182 113.542 253.521 101.516 235.401C105.625 247.12 110.297 258.609 115.479 269.745C129.766 300.417 148.177 329 170.193 354.703C189.797 377.589 208.719 393.927 221.141 403.604C234.807 414.255 243.854 419.448 244.234 419.661L249.943 422.922L249.995 422.896L250.042 422.922L255.75 419.661C256.13 419.448 265.177 414.255 278.844 403.604C291.266 393.927 310.188 377.589 329.792 354.703C351.813 329 370.219 300.417 384.505 269.745C389.693 258.609 394.359 247.12 398.469 235.401C386.443 253.521 323.635 348.182 250.042 395.339Z" fill="black"/>
</g>
</svg>