<svg xmlns="http://www.w3.org/2000/svg" xmlns:xlink="http://www.w3.org/1999/xlink" width="500" zoomAndPan="magnify" viewBox="0 0 375 374.999991" height="500" preserveAspectRatio="xMidYMid meet" version="1.0"><defs><clipPath id="15dbd487c6"><path d="M 212 171 L 252.507812 171 L 252.507812 239 L 212 239 Z M 212 171 " clip-rule="nonzero"/></clipPath><clipPath id="566dea4d18"><path d="M 122.757812 171 L 163 171 L 163 239 L 122.757812 239 Z M 122.757812 171 " clip-rule="nonzero"/></clipPath><clipPath id="dffcf28fc2"><path d="M 60.128906 57.75 L 315 57.75 L 315 199 L 60.128906 199 Z M 60.128906 57.75 " clip-rule="nonzero"/></clipPath><clipPath id="5215f92de0"><path d="M 76 176 L 299 176 L 299 317.25 L 76 317.25 Z M 76 176 " clip-rule="nonzero"/></clipPath></defs><path fill="#ea580b" d="M 196.171875 140.292969 C 201.238281 136.3125 201.988281 128.464844 198.816406 123.117188 C 195.835938 118.164062 189.433594 115.933594 183.921875 117.4375 C 176.070312 119.359375 171.839844 129.214844 175.765625 136.285156 C 179.132812 143.773438 190.214844 145.972656 196.171875 140.292969 Z M 196.171875 140.292969 " fill-opacity="1" fill-rule="nonzero"/><path fill="#ea580b" d="M 143.222656 163.289062 C 150.542969 163.597656 157.027344 156.523438 156.136719 149.257812 C 156.195312 141.464844 148.007812 135.285156 140.492188 136.953125 C 134.980469 137.957031 130.304688 142.6875 129.773438 148.285156 C 128.382812 156.050781 135.371094 163.820312 143.222656 163.289062 Z M 143.222656 163.289062 " fill-opacity="1" fill-rule="nonzero"/><path fill="#ea580b" d="M 232.363281 163.179688 C 239.738281 163.679688 246.253906 156.636719 245.195312 149.34375 C 245.613281 141.378906 237.066406 135.257812 229.578125 136.980469 C 224.566406 138.039062 220.445312 142.046875 219.25 147.03125 C 217.132812 154.910156 223.953125 163.957031 232.363281 163.179688 Z M 232.363281 163.179688 " fill-opacity="1" fill-rule="nonzero"/><path fill="#ea580b" d="M 197.675781 156.523438 C 192.914062 153.324219 186.84375 153.519531 181.445312 154.632812 C 172.453125 157.609375 166.660156 167.046875 167.773438 176.429688 C 167.859375 196.695312 167.773438 216.992188 167.832031 237.257812 C 167.914062 249.035156 180.636719 259.058594 192.078125 255.355469 C 201.125 254.269531 207.585938 245.054688 207.5 236.230469 C 207.585938 215.574219 207.53125 194.914062 207.53125 174.230469 C 207.613281 167.132812 203.855469 160.117188 197.675781 156.523438 Z M 179.914062 236.230469 C 179.914062 215.601562 179.914062 194.972656 179.914062 174.34375 C 179.691406 170.945312 181.832031 167.523438 185.0625 166.378906 C 189.070312 164.847656 193.972656 167.464844 194.945312 171.613281 C 195.835938 193.46875 195.671875 215.378906 195.085938 237.257812 C 194.972656 240.15625 192.746094 242.605469 190.074219 243.523438 C 185.398438 245.777344 179.746094 241.101562 179.914062 236.230469 Z M 179.914062 236.230469 " fill-opacity="1" fill-rule="nonzero"/><g clip-path="url(#15dbd487c6)"><path fill="#ea580b" d="M 252.210938 191.660156 C 252.101562 183.417969 246.671875 175.457031 238.710938 172.921875 C 235.175781 172.144531 231.472656 171.28125 227.90625 172.335938 C 219.054688 174.175781 212.207031 182.667969 212.402344 191.742188 C 212.511719 201.484375 212.152344 211.230469 212.570312 220.972656 C 213.738281 233.722656 229.246094 242.355469 240.574219 236.089844 C 247.839844 233.390625 252.238281 225.289062 252.238281 217.742188 C 252.183594 209.03125 252.238281 200.34375 252.210938 191.660156 Z M 224.457031 216.714844 C 224.539062 208.363281 224.34375 199.980469 224.539062 191.628906 C 224.429688 186.425781 230.886719 181.859375 235.507812 184.894531 C 238.625 186.144531 239.960938 189.597656 239.710938 192.773438 C 239.542969 201.402344 240.4375 210.089844 239.628906 218.691406 C 239.238281 222.894531 235.589844 226.261719 231.359375 225.929688 C 230.386719 225.84375 229.382812 225.59375 228.464844 225.09375 C 228.410156 225.066406 228.382812 225.039062 228.324219 225.011719 C 227.90625 224.757812 227.492188 224.480469 227.128906 224.148438 C 225.179688 222.226562 224.316406 219.414062 224.457031 216.714844 Z M 224.457031 216.714844 " fill-opacity="1" fill-rule="nonzero"/></g><g clip-path="url(#566dea4d18)"><path fill="#ea580b" d="M 162.820312 191.660156 C 162.707031 183.417969 157.28125 175.457031 149.316406 172.921875 C 145.78125 172.144531 142.078125 171.28125 138.515625 172.335938 C 129.664062 174.148438 122.816406 182.667969 123.007812 191.714844 C 123.121094 201.457031 122.757812 211.203125 123.175781 220.945312 C 124.347656 233.695312 139.851562 242.324219 151.183594 236.0625 C 158.449219 233.363281 162.847656 225.261719 162.847656 217.714844 C 162.792969 209.03125 162.875 200.34375 162.820312 191.660156 Z M 135.089844 216.714844 C 135.175781 208.363281 134.980469 199.980469 135.175781 191.628906 C 135.0625 186.425781 141.523438 181.859375 146.144531 184.894531 C 149.261719 186.144531 150.597656 189.597656 150.347656 192.773438 C 150.179688 201.402344 151.070312 210.089844 150.265625 218.691406 C 149.875 222.894531 146.226562 226.261719 141.996094 225.929688 C 141.023438 225.84375 140.019531 225.59375 139.101562 225.09375 C 139.042969 225.066406 139.015625 225.039062 138.960938 225.011719 C 138.542969 224.757812 138.125 224.480469 137.765625 224.148438 C 135.789062 222.226562 134.953125 219.414062 135.089844 216.714844 Z M 135.089844 216.714844 " fill-opacity="1" fill-rule="nonzero"/></g><g clip-path="url(#dffcf28fc2)"><path fill="#ffffff" d="M 87.558594 162.5625 C 84.109375 151.066406 81.457031 139.074219 79.664062 126.875 C 88.09375 125.625 97.835938 122.949219 108.679688 118.898438 C 120.484375 114.488281 133.785156 108.40625 148.21875 100.816406 C 165.417969 91.773438 180.320312 82.605469 187.457031 78.089844 C 187.46875 78.097656 187.480469 78.105469 187.496094 78.113281 C 187.507812 78.105469 187.519531 78.097656 187.53125 78.089844 C 194.667969 82.605469 209.570312 91.773438 226.769531 100.816406 C 241.203125 108.40625 254.503906 114.488281 266.308594 118.898438 C 277.152344 122.949219 286.894531 125.625 295.324219 126.875 C 293.535156 139.074219 290.882812 151.066406 287.429688 162.5625 C 283.710938 174.953125 278.964844 187.085938 273.328125 198.652344 C 305.683594 163.585938 314.859375 111.101562 314.859375 111.101562 L 305.230469 110.988281 C 289.960938 110.808594 265.78125 102.246094 235.300781 86.226562 C 211.703125 73.824219 192.714844 61.285156 192.527344 61.15625 L 187.53125 57.847656 L 187.496094 57.875 L 187.457031 57.847656 L 182.464844 61.15625 C 182.273438 61.285156 163.285156 73.824219 139.6875 86.226562 C 109.210938 102.246094 85.027344 110.808594 69.757812 110.988281 L 60.128906 111.101562 C 60.128906 111.101562 69.304688 163.585938 101.664062 198.652344 C 96.023438 187.085938 91.28125 174.953125 87.558594 162.5625 " fill-opacity="1" fill-rule="nonzero"/></g><g clip-path="url(#5215f92de0)"><path fill="#ffffff" d="M 187.53125 296.503906 C 187.519531 296.496094 187.507812 296.488281 187.496094 296.480469 C 187.480469 296.488281 187.46875 296.496094 187.457031 296.503906 C 132.261719 261.136719 85.15625 190.140625 76.136719 176.550781 C 79.21875 185.339844 82.722656 193.957031 86.609375 202.308594 C 97.324219 225.3125 111.132812 246.75 127.644531 266.027344 C 142.347656 283.191406 156.539062 295.445312 165.855469 302.703125 C 176.105469 310.691406 182.890625 314.585938 183.175781 314.746094 L 187.457031 317.191406 L 187.496094 317.171875 L 187.53125 317.191406 L 191.8125 314.746094 C 192.097656 314.585938 198.882812 310.691406 209.132812 302.703125 C 218.449219 295.445312 232.640625 283.191406 247.34375 266.027344 C 263.859375 246.75 277.664062 225.3125 288.378906 202.308594 C 292.269531 193.957031 295.769531 185.339844 298.851562 176.550781 C 289.832031 190.140625 242.726562 261.136719 187.53125 296.503906 " fill-opacity="1" fill-rule="nonzero"/></g></svg>